<svg width="78" height="78" viewBox="0 0 78 78" fill="none" xmlns="http://www.w3.org/2000/svg">
<path d="M43 42.5C43 46.6421 39.6421 50 35.5 50C31.3579 50 28 46.6421 28 42.5C28 38.3579 31.3579 35 35.5 35C39.6421 35 43 38.3579 43 42.5Z" fill="#5954E9"/>
<path d="M33.2305 29.6033L25.6311 22.0039L15.2319 32.4031C6.83776 40.7972 6.83777 54.4068 15.2319 62.8009C23.626 71.195 37.2355 71.195 45.6296 62.8009L56.0289 52.4017L48.4294 44.8022L38.0302 55.2015C33.8331 59.3985 27.0284 59.3985 22.8313 55.2015C18.6343 51.0044 18.6343 44.1996 22.8313 40.0026L33.2305 29.6033Z" fill="#5954E9"/>
<path d="M33.2305 29.6033L25.6311 22.0039L15.2319 32.4031C6.83776 40.7972 6.83777 54.4068 15.2319 62.8009L22.8313 55.2015C18.6343 51.0044 18.6343 44.1996 22.8313 40.0026L33.2305 29.6033Z" fill="#76B5FF"/>
<path fill-rule="evenodd" clip-rule="evenodd" d="M69.6614 38.8076C70.4899 38.8076 71.1651 38.1356 71.1264 37.3081C70.7684 29.6417 67.6621 22.0797 61.8076 16.2252C55.9533 10.3709 48.3916 7.26459 40.7253 6.90641C39.8978 6.86774 39.2258 7.54297 39.2258 8.3714C39.2258 9.19983 39.8979 9.86737 40.7252 9.91003C47.623 10.2658 54.4178 13.0779 59.6863 18.3465C64.955 23.6152 67.7672 30.4102 68.1228 37.3082C68.1655 38.1355 68.833 38.8076 69.6614 38.8076ZM62.4147 38.8076C63.2431 38.8076 63.9194 38.1354 63.8694 37.3085C63.5182 31.4985 61.1228 25.7889 56.6834 21.3495C52.2441 16.9102 46.5348 14.5148 40.725 14.1635C39.898 14.1135 39.2258 14.7898 39.2258 15.6182C39.2258 16.4466 39.8982 17.1128 40.7247 17.1697C45.7656 17.5169 50.7085 19.6172 54.5621 23.4708C58.4157 27.3245 60.5161 32.2675 60.8632 37.3087C60.9201 38.1352 61.5863 38.8076 62.4147 38.8076ZM55.1684 38.8076C55.9968 38.8076 56.675 38.1348 56.6043 37.3094C56.2658 33.3569 54.5842 29.4979 51.5595 26.4733C48.5351 23.4488 44.6763 21.7673 40.724 21.4285C39.8986 21.3578 39.2258 22.0361 39.2258 22.8645C39.2258 23.6929 39.8992 24.3564 40.7232 24.4418C43.9056 24.7716 46.9995 26.1559 49.4382 28.5946C51.8771 31.0334 53.2613 34.1275 53.591 37.3102C53.6764 38.1342 54.34 38.8076 55.1684 38.8076ZM47.9217 38.8076C48.7501 38.8076 49.433 38.1325 49.3122 37.3129C49.0041 35.2214 48.0451 33.2073 46.4353 31.5976C44.8257 29.988 42.8118 29.029 40.7205 28.7208C39.9009 28.6 39.2258 29.2828 39.2258 30.1113C39.2258 30.9397 39.9044 31.5955 40.7151 31.7662C42.0339 32.0439 43.2899 32.6948 44.314 33.7189C45.3382 34.7431 45.9891 35.9992 46.2668 37.3182C46.4374 38.1289 47.0933 38.8076 47.9217 38.8076Z" fill="#76B5FF"/>
</svg>
