<svg width="64" height="64" viewBox="0 0 64 64" fill="none" xmlns="http://www.w3.org/2000/svg">
<path d="M41.6 8H12.4C10.1598 8 9.03969 8 8.18404 8.43597C7.43139 8.81947 6.81947 9.43139 6.43597 10.184C6 11.0397 6 12.1598 6 14.4V55.6C6 57.8402 6 58.9603 6.43597 59.816C6.81947 60.5686 7.43139 61.1805 8.18404 61.564C9.03969 62 10.1598 62 12.4 62H41.6C43.8402 62 44.9603 62 45.816 61.564C46.5686 61.1805 47.1805 60.5686 47.564 59.816C48 58.9603 48 57.8402 48 55.6V14.4C48 12.1598 48 11.0397 47.564 10.184C47.1805 9.43139 46.5686 8.81947 45.816 8.43597C44.9603 8 43.8402 8 41.6 8Z" fill="#F2F3FA"/>
<path d="M46.6 3H17.4C15.1598 3 14.0397 3 13.184 3.43597C12.4314 3.81947 11.8195 4.43139 11.436 5.18404C11 6.03969 11 7.15979 11 9.4V50.6C11 52.8402 11 53.9603 11.436 54.816C11.8195 55.5686 12.4314 56.1805 13.184 56.564C14.0397 57 15.1598 57 17.4 57H46.6C48.8402 57 49.9603 57 50.816 56.564C51.5686 56.1805 52.1805 55.5686 52.564 54.816C53 53.9603 53 52.8402 53 50.6V9.4C53 7.15979 53 6.03969 52.564 5.18404C52.1805 4.43139 51.5686 3.81947 50.816 3.43597C49.9603 3 48.8402 3 46.6 3Z" fill="#5954E9"/>
<circle cx="45.5" cy="49.5" r="11.5" fill="#76B5FF"/>
<path d="M41 50L44 53L50 47" stroke="white" stroke-width="2" stroke-linecap="round" stroke-linejoin="round"/>
<line x1="20" y1="34" x2="38" y2="34" stroke="#76B5FF" stroke-width="2" stroke-linecap="round" stroke-linejoin="round"/>
<line x1="20" y1="42" x2="29" y2="42" stroke="#76B5FF" stroke-width="2" stroke-linecap="round" stroke-linejoin="round"/>
<circle cx="25.5" cy="18.5" r="6.5" fill="#76B5FF"/>
</svg>
