<svg width="104" height="15" viewBox="0 0 104 15" fill="none" xmlns="http://www.w3.org/2000/svg">
<path d="M103.979 12.8575C104.058 13.1222 103.907 13.4006 103.642 13.4793L99.3291 14.7616C99.0644 14.8403 98.786 14.6895 98.7073 14.4249C98.6286 14.1602 98.7794 13.8818 99.0441 13.8031L102.878 12.6632L101.738 8.82907C101.66 8.56438 101.81 8.28601 102.075 8.20732C102.34 8.12863 102.618 8.27941 102.697 8.5441L103.979 12.8575ZM1 13C0.784712 12.5487 0.785081 12.5485 0.785658 12.5483C0.786127 12.548 0.786912 12.5477 0.787849 12.5472C0.789725 12.5463 0.792429 12.5451 0.795959 12.5434C0.803017 12.54 0.813376 12.5351 0.827006 12.5287C0.854266 12.5159 0.894611 12.4971 0.947807 12.4724C1.0542 12.4232 1.212 12.351 1.41935 12.2581C1.83405 12.0723 2.44696 11.8039 3.2432 11.4721C4.83562 10.8084 7.16158 9.89063 10.1019 8.87133C15.9817 6.83298 24.3221 4.3873 34.1683 2.75672C53.8545 -0.503416 79.6046 -0.511956 103.738 12.5604L103.262 13.4396C79.3954 0.511956 53.8955 0.503416 34.3317 3.74328C24.5529 5.3627 16.2683 7.79202 10.4294 9.81617C7.5103 10.8281 5.20345 11.7385 3.62789 12.3951C2.84014 12.7234 2.23529 12.9883 1.82821 13.1707C1.62467 13.2618 1.47058 13.3324 1.36781 13.38C1.31642 13.4038 1.27786 13.4218 1.25236 13.4338C1.23961 13.4398 1.23013 13.4442 1.22394 13.4472C1.22085 13.4486 1.21858 13.4497 1.21713 13.4504C1.21641 13.4507 1.21595 13.451 1.21559 13.4511C1.21533 13.4513 1.21529 13.4513 1 13Z" fill="#CED0D6"/>
</svg>
