<svg width="104" height="15" viewBox="0 0 104 15" fill="none" xmlns="http://www.w3.org/2000/svg">
<path d="M103.479 2.14249C103.558 1.87779 103.407 1.59942 103.142 1.52073L98.8291 0.238366C98.5644 0.159673 98.286 0.310456 98.2073 0.575149C98.1286 0.839841 98.2794 1.11821 98.5441 1.1969L102.378 2.33678L101.238 6.17093C101.16 6.43562 101.31 6.71399 101.575 6.79268C101.84 6.87137 102.118 6.72059 102.197 6.4559L103.479 2.14249ZM0.5 2C0.284712 2.45128 0.285081 2.45145 0.285658 2.45173C0.286127 2.45195 0.286912 2.45232 0.287849 2.45277C0.289725 2.45366 0.292429 2.45495 0.295959 2.45662C0.303017 2.45996 0.313376 2.46485 0.327006 2.47126C0.354266 2.48407 0.394611 2.50293 0.447807 2.52755C0.554199 2.57679 0.712002 2.64905 0.919353 2.74194C1.33405 2.92773 1.94696 3.19608 2.7432 3.52793C4.33562 4.1916 6.66158 5.10937 9.60185 6.12867C15.4817 8.16702 23.8221 10.6127 33.6683 12.2433C53.3545 15.5034 79.1046 15.512 103.238 2.43965L102.762 1.56035C78.8954 14.488 53.3955 14.4966 33.8317 11.2567C24.0529 9.6373 15.7683 7.20798 9.9294 5.18383C7.0103 4.17188 4.70345 3.26153 3.12789 2.60488C2.34014 2.27657 1.73529 2.01172 1.32821 1.82934C1.12467 1.73816 0.970581 1.66759 0.867806 1.62003C0.816418 1.59625 0.77786 1.57822 0.752362 1.56623C0.739614 1.56024 0.73013 1.55576 0.723942 1.55283C0.720847 1.55136 0.718577 1.55029 0.717133 1.5496C0.716411 1.54926 0.71595 1.54904 0.715589 1.54887C0.715335 1.54875 0.715288 1.54872 0.5 2Z" fill="#CED0D6"/>
</svg>
