<svg xmlns="http://www.w3.org/2000/svg" width="129" height="32" fill="none" viewBox="0 0 129 32">
    <path fill="#D7DFE9" fill-rule="evenodd" d="M27.392 10.245C27.392 27.35 13.696 32 13.696 32S0 27.349 0 10.245V4.094c0-.665.514-1.222 1.179-1.265C3.665 2.722 9.559 2.208 13.696 0c4.136 2.208 10.03 2.722 12.517 2.83.664.042 1.179.6 1.179 1.264v6.151zm-11.96-.45c2.036.193 3.622.836 3.794 2.7.128 1.372-.45 2.187-1.372 2.616 1.5.364 2.422 1.285 2.23 3.279-.258 2.486-2.101 3.15-4.76 3.28v2.614H13.74v-2.572c-.408 0-.836 0-1.265-.021v2.593H10.91v-2.615c-.365-.021-2.872 0-2.872 0l.02-1.907h1.78v-8.338H7.823v-1.65s2.83-.022 3.172-.022l-.021-2.593h1.586v2.55h1.286V7.18h1.586v2.615zm-2.536 9.992c1.279.02 4.06.065 4.08-1.719.019-1.846-2.746-1.789-4.045-1.762-.134.002-.252.005-.35.005v3.472c.09 0 .196.002.316.004zm-.104-5.056c1.03.034 3.456.116 3.476-1.55.02-1.689-2.284-1.637-3.37-1.612-.113.003-.213.005-.295.005v3.15l.19.007zm41.799 6.488c0 1.372-.279 2.508-.815 3.43-.536.921-1.264 1.671-2.143 2.229-.9.557-1.908.964-3.044 1.221-1.136.236-2.314.364-3.493.364h-9.924V3.538h9.924c.964 0 1.95.107 2.958.3 1.007.193 1.929.535 2.743 1.028.815.493 1.479 1.136 2.015 1.95.514.815.771 1.866.771 3.13 0 1.393-.364 2.53-1.136 3.43-.75.9-1.736 1.564-2.957 1.95v.064c.707.129 1.371.343 1.993.665.622.321 1.157.728 1.607 1.221.45.493.815 1.072 1.093 1.736.258.643.408 1.372.408 2.208zm-6.837-10.46c0-.835-.322-1.457-.965-1.843-.643-.385-1.608-.578-2.872-.578h-2.958v5.144h3.237c1.136 0 1.993-.236 2.614-.686.643-.472.944-1.158.944-2.036zm.814 9.881c0-1.028-.386-1.757-1.157-2.143-.772-.407-1.8-.6-3.108-.6h-3.344v5.701h3.387c.471 0 .964-.043 1.457-.128.493-.086.965-.236 1.372-.43.407-.213.75-.514 1.007-.9.257-.385.386-.878.386-1.5zm13.76-14.06c.172-.386.257-.793.257-1.243 0-.45-.085-.879-.235-1.286-.172-.386-.408-.729-.708-1.008-.278-.278-.643-.493-1.05-.664-.407-.15-.836-.236-1.286-.236-.471 0-.9.086-1.307.257-.386.172-.75.408-1.05.686-.3.279-.536.622-.708 1.008-.171.385-.257.793-.257 1.221 0 .858.3 1.608.943 2.23.643.642 1.415.942 2.358.942.45 0 .878-.064 1.286-.235.407-.172.75-.386 1.05-.665.3-.278.536-.621.707-1.007zm-.15 21.883V10.931h-5.787v17.532h5.787zm10.46-13.245v6.708c0 .836.15 1.436.471 1.865.322.407.879.622 1.715.622.278 0 .579-.022.9-.065.322-.043.579-.107.793-.214l.064 4.222c-.407.15-.9.257-1.521.365-.622.107-1.222.15-1.844.15-1.178 0-2.164-.15-2.957-.45-.793-.3-1.436-.708-1.93-1.265-.471-.557-.835-1.2-1.05-1.972-.214-.771-.321-1.607-.321-2.55v-7.416h-2.765V10.93h2.786V6.323h5.68v4.608h4.115v4.287h-4.136zm19.697 13.889c1.929 0 3.708-.193 5.337-.6 1.629-.408 3.043-.922 4.308-1.565V13.74H91.692v4.908h4.758v4.544c-.536.236-1.136.408-1.758.515-.642.107-1.307.15-2.014.15-1.222 0-2.315-.193-3.258-.579-.965-.386-1.758-.943-2.4-1.629-.644-.686-1.137-1.522-1.458-2.486-.322-.965-.493-2.015-.493-3.172 0-1.115.193-2.165.557-3.108.343-.943.858-1.78 1.522-2.465.643-.707 1.415-1.243 2.315-1.629.879-.386 1.865-.579 2.915-.579 1.221 0 2.314.215 3.279.643.943.43 1.736.986 2.315 1.672l3.794-4.33c-1.051-1.028-2.422-1.821-4.116-2.421-1.693-.6-3.515-.9-5.487-.9-1.907 0-3.665.321-5.315.921-1.629.6-3.065 1.479-4.287 2.615-1.222 1.136-2.186 2.508-2.872 4.137-.707 1.629-1.05 3.429-1.05 5.422 0 1.972.343 3.773 1.029 5.38.664 1.608 1.629 2.98 2.829 4.137 1.2 1.157 2.658 2.036 4.33 2.679 1.671.621 3.514.943 5.508.943zm31.314-9.474c0 1.436-.257 2.722-.772 3.901-.514 1.158-1.221 2.143-2.121 2.958-.901.814-1.929 1.436-3.108 1.886-1.179.45-2.422.664-3.773.664-1.307 0-2.572-.214-3.75-.664-1.179-.45-2.23-1.072-3.108-1.886-.879-.815-1.586-1.8-2.101-2.958-.514-1.157-.771-2.465-.771-3.9 0-1.437.257-2.723.771-3.88.515-1.158 1.222-2.122 2.101-2.915.878-.793 1.907-1.415 3.108-1.822 1.178-.429 2.443-.643 3.75-.643 1.329 0 2.594.214 3.773.643 1.179.429 2.207 1.029 3.108 1.822.9.793 1.586 1.779 2.121 2.915.515 1.157.772 2.443.772 3.88zm-5.551 0c0-.557-.086-1.114-.279-1.65-.193-.536-.45-1.008-.814-1.436-.343-.407-.793-.75-1.308-1.008-.514-.257-1.114-.385-1.8-.385-.686 0-1.286.128-1.801.385-.514.258-.943.6-1.286 1.008-.343.407-.6.879-.771 1.436-.172.536-.257 1.093-.257 1.65 0 .558.085 1.115.257 1.65.171.536.428 1.03.793 1.458.343.429.793.793 1.307 1.05.515.258 1.115.386 1.801.386.686 0 1.286-.128 1.8-.386.515-.257.943-.6 1.308-1.05.342-.429.621-.922.793-1.457.171-.536.257-1.093.257-1.65zm10.502 7.394c0-1.136-.922-1.993-2.015-1.993-1.114 0-2.036.836-2.036 1.993s.943 2.015 2.036 2.015c1.072 0 2.015-.858 2.015-2.015zm-3.665 0c0-.943.729-1.672 1.65-1.672.901 0 1.629.708 1.629 1.672 0 .965-.707 1.672-1.629 1.672-.921 0-1.65-.686-1.65-1.672zm.857 1.157h.343v-1.007h.407l.622 1.008h.386l-.665-1.008c.343-.043.601-.236.601-.643 0-.45-.258-.664-.815-.664h-.879v2.314zm.793-1.286h-.407v-.728h.472c.407 0 .514.128.514.343 0 .257-.15.385-.579.385z" clip-rule="evenodd"/>
</svg>
