<svg width="98" height="95" viewBox="0 0 98 95" fill="none" xmlns="http://www.w3.org/2000/svg">
<mask id="mask0" mask-type="alpha" maskUnits="userSpaceOnUse" x="1" y="0" width="96" height="93">
<path d="M52.1852 90.8068L96.1344 32.9497C97.2337 31.5026 97.2193 29.4962 96.0993 28.065L75.3374 1.53483C74.5793 0.56605 73.4175 0 72.1874 0H25.8126C24.5825 0 23.4207 0.56605 22.6626 1.53483L1.90072 28.065C0.780706 29.4962 0.766267 31.5026 1.86556 32.9497L45.8148 90.8068C47.4155 92.914 50.5845 92.914 52.1852 90.8068Z" fill="#5954E9"/>
</mask>
<g mask="url(#mask0)">
<path d="M-1 31H99L49 95L-1 31Z" fill="#2E3479"/>
<path d="M99 30.6452L74.7692 0L49 95L99 30.6452Z" fill="#5954E9"/>
<path d="M99 31L-1 31L23.3507 7.43369e-06L74.6493 7.01793e-06L99 31Z" fill="#5954E9"/>
<path d="M-1 30.7896L23.2308 0.406982L49 95L-1 30.7896Z" fill="#F2F3FA"/>
<path d="M74.73 0L99 31H66.5L74.73 0Z" fill="#76B5FF"/>
<path d="M23.75 0L-1 31H31.5L23.75 0Z" fill="#76B5FF"/>
</g>
</svg>
