<svg width="64" height="64" viewBox="0 0 64 64" fill="none" xmlns="http://www.w3.org/2000/svg">
<path d="M38.002 60.8376L37.5026 58.9336C41.6228 57.7912 43.2459 44.8437 38.7511 28.0882C34.3813 11.3327 26.6403 0.923897 22.5201 2.06632L22.0206 0.162282C28.6379 -1.61478 36.7535 12.602 40.624 27.5804C44.4944 42.5589 44.7442 58.9336 38.002 60.8376Z" fill="#76B5FF"/>
<path d="M53.9836 43.0627C47.616 44.8397 37.0033 43.9513 27.1398 41.2856C19.274 39.1277 12.2821 36.0813 7.16302 32.7809C1.79422 29.2266 -0.702841 25.5455 0.171182 22.3721L2.04401 22.7529C1.54455 24.9107 3.79194 27.9572 8.28671 31.0037C13.1561 34.304 20.0231 37.2236 27.6392 39.2545C44.12 43.6972 56.8552 42.174 57.9789 37.8582L59.8518 38.366C59.2275 40.651 57.1049 42.1742 53.9836 43.0627Z" fill="#76B5FF"/>
<path d="M8.30089 52.7712C3.43728 47.8241 11.5433 33.6172 22.2682 22.7083C32.9932 11.7995 46.9604 3.42754 51.9487 8.3746L50.577 9.76988C47.584 6.72554 35.7368 11.7995 23.7648 24.1036C11.7929 36.4077 6.67965 48.3315 9.67264 51.3759L8.30089 52.7712Z" fill="#76B5FF"/>
<path d="M56.3557 23.2647C60.2262 37.9892 51.6113 53.2215 37.128 57.2836C22.6448 61.3456 7.66229 52.4599 3.66697 37.7354C-0.32835 23.0109 8.41142 7.77847 22.8947 3.71656C37.3779 -0.345342 52.3604 8.54009 56.3557 23.2647Z" fill="#5954E9"/>
<mask id="mask0" mask-type="alpha" maskUnits="userSpaceOnUse" x="2" y="2" width="56" height="57">
<path d="M56.3557 23.2647C60.2262 37.9892 51.6113 53.2215 37.128 57.2836C22.6448 61.3456 7.66229 52.4599 3.66697 37.7354C-0.32835 23.0109 8.41142 7.77847 22.8947 3.71656C37.3779 -0.345342 52.3604 8.54009 56.3557 23.2647Z" fill="#5954E9"/>
</mask>
<g mask="url(#mask0)">
<path d="M34 10C36.4 6 33 1 31 -1L45.5 -8L75 12L61 54.5C59.1667 54 54.3 52.3 49.5 49.5C43.5 46 50 44.5 49.5 35C49 25.5 44.5 22 37 22C29.5 22 31 15 34 10Z" fill="#F2F3FA"/>
<path d="M20.6615 17.6057C20.0991 17.7571 18.9057 17.798 18.6496 17.0809C17.5157 13.9059 25.0599 5.30223 26.7191 10.2797C26.9243 10.8954 26.4671 12.1226 25.9647 12.4994C25.0113 13.2144 24.364 14.0802 23.7669 15.0908C22.9379 16.4937 22.2976 17.1652 20.6615 17.6057Z" fill="#F2F3FA"/>
<path d="M6.87472 36.5746C6.06751 38.4439 4.6424 39.6559 3.04028 40.8575C3.70982 41.0806 3.23172 42.4129 3.54481 42.9765C4.01253 43.8184 4.48208 44.6427 4.9575 45.4879C5.75127 46.8991 6.25675 48.398 6.87472 49.8942C7.29072 50.9013 7.66879 51.8584 7.92863 52.9214C8.14696 53.8145 9.1045 54.6007 9.65524 55.2983C11.788 57.9998 15.942 58.8156 19.0171 59.7381C23.2297 61.0019 28.6128 61.9425 32.9085 60.6351C33.9805 60.3088 35.7848 60.1727 36.5411 59.1775C37.0959 58.4476 36.9447 57.7292 36.9447 56.8006C36.9447 54.5743 39.7488 53.6912 37.0569 51.9684C34.3475 50.2344 29.6698 51.4085 27.1008 52.8765C26.2907 53.3394 24.2514 52.9662 23.3112 52.9662C22.2151 52.9662 21.813 51.4022 21.607 50.5781C21.3188 49.4251 19.6996 48.8661 18.9386 48.0779C17.481 46.5682 19.4424 45.5548 20.3961 44.6919C20.8513 44.2801 21.4052 44.2662 21.4052 43.5819C21.4052 43.1212 21.607 42.7265 21.607 42.2702C21.607 40.8238 23.7091 40.6229 24.7351 40.3529C26.0312 40.0119 28.1565 40.4726 28.8723 39.0412C29.1211 38.5435 29.2143 37.7167 29.0292 37.18C28.8647 36.703 28.2186 36.138 28.4238 35.6103C28.6077 35.1375 28.3558 34.5901 28.5807 34.108C28.8473 33.5367 29.2303 33.0232 29.5674 32.4935C29.7959 32.1345 29.4172 31.3768 29.175 31.0808C28.6358 30.4217 27.3478 30.8817 26.6523 30.9687C24.7239 31.2097 23.302 32.3813 21.3379 32.3813C19.9202 32.3813 19.0706 31.8348 17.8174 31.4171C16.688 31.0406 15.7479 30.4038 14.8351 29.6569C13.5876 28.6362 13.1116 28.2374 12.9403 26.4391C12.8801 25.8066 12.7506 25.1856 12.7273 24.5555C12.6892 23.5287 12.2878 23.9134 11.6734 24.3537C10.4008 25.2657 8.79529 26.2438 8.13044 27.7397C7.73569 28.6278 9.03711 30.5041 7.88378 31.0808C6.97081 31.5373 6.07989 32.2512 6.58321 33.4016L6.59367 33.4255C7.13198 34.6559 7.41949 35.313 6.87472 36.5746Z" fill="#F2F3FA"/>
</g>
<path d="M38.0021 60.8377C31.3848 62.6148 23.2691 48.398 19.2738 33.4196C15.2785 18.4411 15.2785 2.06639 22.0207 0.162354L22.5201 2.06639C18.3999 3.20881 16.7768 16.1563 21.2715 32.9118C25.7663 49.6673 33.3825 60.0761 37.6275 58.9337L38.0021 60.8377Z" fill="#76B5FF"/>
<path d="M59.7811 38.6239L57.9105 38.1161C59.0329 33.9272 48.8068 26.0572 32.3454 21.6144C15.884 17.0447 3.16388 18.6949 2.04151 22.8838L0.170898 22.376C1.91676 15.6484 18.1288 15.6484 32.8443 19.5834C47.5598 23.5183 61.527 31.7693 59.7811 38.6239Z" fill="#76B5FF"/>
<path d="M15.528 53.7295C12.4066 54.618 9.78464 54.3641 8.28638 52.714L9.65974 51.3178C12.6563 54.3642 24.5174 49.2867 36.5035 36.974C48.4896 24.7882 53.4838 12.7293 50.4873 9.68287L51.8607 8.28662C56.73 13.2371 48.6145 27.454 37.8769 38.3704C30.6355 45.7325 21.8956 51.9523 15.528 53.7295Z" fill="#76B5FF"/>
<path d="M17.6509 21.7414C19.6506 21.7414 21.2717 20.0933 21.2717 18.0603C21.2717 16.0272 19.6506 14.3792 17.6509 14.3792C15.6512 14.3792 14.0302 16.0272 14.0302 18.0603C14.0302 20.0933 15.6512 21.7414 17.6509 21.7414Z" fill="#76B5FF"/>
<path d="M25.5169 51.1903C27.5165 51.1903 29.1376 49.5422 29.1376 47.5092C29.1376 45.4762 27.5165 43.8281 25.5169 43.8281C23.5172 43.8281 21.8961 45.4762 21.8961 47.5092C21.8961 49.5422 23.5172 51.1903 25.5169 51.1903Z" fill="#76B5FF"/>
<path d="M46.617 29.6117C48.6166 29.6117 50.2377 27.9636 50.2377 25.9306C50.2377 23.8976 48.6166 22.2495 46.617 22.2495C44.6173 22.2495 42.9962 23.8976 42.9962 25.9306C42.9962 27.9636 44.6173 29.6117 46.617 29.6117Z" fill="#76B5FF"/>
</svg>
