<svg xmlns="http://www.w3.org/2000/svg" width="200" height="200" fill="none" viewBox="0 0 200 200">
    <path fill="#9683E4" d="M161.645 103.204c3.673 27.941-16.024 53.563-43.991 57.233-1.019.133-2.035.236-3.048.308l-7.159-54.512 53.518-7.02c.275 1.306.502 2.637.68 3.991z"/>
    <path stroke="#fff" stroke-miterlimit="10" stroke-width=".503" d="M139.723 152.319c1.344-4.16 2.217-8.826.374-10.932-3.71-4.238-18.496 9.489-18.496 9.489s4.567-5.707 4.31-8.838c-.195-2.378-9.257.554-13.613 2.104M110 125.649s20.163 9.403 23.471 4.645c3.309-4.758-10.033-19.531-8.769-20.68 1.265-1.149 6.085 1.323 7.173-.06.919-1.17.44-4.049-.218-6.511M162.085 107.128c-4.866 0-17.308.35-18.051 3.637-.931 4.093 10.85 7.426 10.863 8.274.012.848-13.769 1.775-13.748 5.384.011 2.172 8.35 6.451 14.99 9.513"/>
    <path fill="#5233D4" d="M107.447 87.146l-58.683 6.96c-.93-23.275 14.081-44.047 35.958-50.808 2.192-.679 4.428-1.21 6.692-1.588.814-.136 1.634-.253 2.46-.352 2.686-.319 5.391-.425 8.093-.317l3.994 33.601.574 4.836.912 7.668z"/>
    <path fill="#EAE7F7" d="M156.213 95.537l-42.891 1.888-2.045-46.468c23.253 2.65 42.04 20.997 44.936 44.58z"/>
    <path fill="#C8BFEF" d="M87.021 107.044L76.221 161c-26.036-6.794-42.555-32.731-37.22-59.379.267-1.336.585-2.65.954-3.94l47.066 9.363z"/>
    <path stroke="#fff" stroke-linejoin="bevel" stroke-width=".503" d="M76.739 46.617c-2.566 5.063-4.887 11.013-3.168 13.448 3.248 4.6 21.755-10.975 21.755-10.975s-4.372 5.547-2.132 7.78c1.47 1.466 7.351.474 10.679-.23"/>
    <path stroke="#fff" stroke-miterlimit="10" stroke-width=".503" d="M68.84 91.809c4.385-5.456 9.9-13.09 8.518-15.29-2.237-3.544-14.844 6.88-15.447 6.286-.603-.593 4.103-7.534 1.545-10.053-1.252-1.235-6.312-.377-11.158.821M105.149 68.22c-4.36-1.135-22.371-5.552-24.752-1.624-2.7 4.458 15.767 11.435 15.248 16.215-.172 1.59-10.64-.575-11.545.74-.76 1.104.663 3.844 2.197 6.215"/>
    <path fill="#fff" d="M106.681 79.553c-.9-.271-1.756-.674-2.541-1.196-2.233-1.448-3.542-3.419-2.922-4.394.592-.935 2.747-.617 4.895.695l.568 4.895zM57.123 83.627c.722-1.602.462-3.283-.583-3.754-1.044-.47-2.476.446-3.199 2.048-.723 1.602-.462 3.282.582 3.753 1.045.471 2.477-.445 3.2-2.047zM91.43 43.358c-.683 1.513-3.035 1.927-5.254.926-.524-.233-1.013-.538-1.453-.905 2.225-.69 4.493-1.228 6.79-1.613.163.523.134 1.088-.083 1.592zM75.905 70.802c.278-.817-.846-1.938-2.51-2.503-1.664-.565-3.238-.361-3.516.456-.277.817.847 1.938 2.51 2.503 1.665.565 3.239.36 3.516-.456z"/>
</svg>
