<?xml version="1.0" encoding="UTF-8"?>
<svg width="189" height="174" viewBox="0 0 189 174" fill="none" xmlns="http://www.w3.org/2000/svg">
<path d="M246.991 65.2542H193.292C176.376 65.2542 167.918 65.2542 159.781 66.8127C152.561 68.1958 145.544 70.4856 138.898 73.6277C131.408 77.1684 124.578 82.1574 110.918 92.1354L39.1211 144.58C27.2371 153.26 21.2951 157.601 20.5697 161.441C19.9425 164.761 21.0555 168.172 23.5205 170.483C26.3712 173.156 33.7296 173.156 48.4465 173.156H102.61C119.354 173.156 127.726 173.156 135.779 171.613C142.926 170.244 149.871 167.978 156.45 164.868C163.863 161.363 170.624 156.425 184.144 146.549L184.145 146.549L256.317 93.8303C268.201 85.1496 274.143 80.8092 274.868 76.9693C275.495 73.649 274.382 70.2383 271.917 67.927C269.066 65.2542 261.708 65.2542 246.991 65.2542Z" fill="#5954E9"/>
<path d="M246.991 0H193.292C176.376 0 167.918 0 159.781 1.55857C152.561 2.94167 145.544 5.23144 138.898 8.37351C131.408 11.9142 124.578 16.9032 110.918 26.8812L39.1211 79.3255C27.2371 88.0062 21.2951 92.3466 20.5697 96.1865C19.9425 99.5069 21.0555 102.918 23.5205 105.229C26.3712 107.902 33.7296 107.902 48.4465 107.902H102.61C119.354 107.902 127.726 107.902 135.779 106.359C142.926 104.99 149.871 102.724 156.45 99.6135C163.863 96.1089 170.624 91.1708 184.144 81.2945L184.145 81.2944L256.317 28.5761C268.201 19.8954 274.143 15.5551 274.868 11.7152C275.495 8.39481 274.382 4.98415 271.917 2.67289C269.066 0 261.708 0 246.991 0Z" fill="url(#paint0_linear)"/>
<defs>
<linearGradient id="paint0_linear" x1="57" y1="108" x2="232" y2="-12" gradientUnits="userSpaceOnUse">
<stop stop-color="#FAFAFD"/>
<stop offset="1" stop-color="#DCDEE5" stop-opacity="0"/>
</linearGradient>
</defs>
</svg>
