<svg width="273" height="339" viewBox="0 0 273 339" fill="none" xmlns="http://www.w3.org/2000/svg">
<path d="M-211.152 127.753H-106.021C-72.9029 127.753 -56.3438 127.753 -40.4146 130.804C-26.2787 133.512 -12.5416 137.995 0.47049 144.146C15.1335 151.078 28.505 160.845 55.2482 180.38L195.811 283.054C219.077 300.049 230.71 308.547 232.13 316.064C233.358 322.565 231.179 329.242 226.353 333.767C220.772 339 206.366 339 177.554 339H71.513C38.7325 339 22.3422 339 6.57529 335.98C-7.4165 333.3 -21.0136 328.862 -33.8931 322.774C-48.4065 315.912 -61.6418 306.245 -88.1121 286.909L-88.1125 286.909L-229.409 183.698C-252.676 166.704 -264.309 158.206 -265.729 150.688C-266.957 144.188 -264.778 137.511 -259.952 132.986C-254.371 127.753 -239.965 127.753 -211.152 127.753Z" fill="#5954E9"/>
<path d="M-211.153 0H-106.021C-72.9032 0 -56.3441 0 -40.4149 3.05133C-26.279 5.75912 -12.5419 10.242 0.470184 16.3934C15.1331 23.3254 28.5047 33.0927 55.2479 52.6273L195.81 155.302C219.077 172.296 230.71 180.794 232.13 188.312C233.358 194.812 231.179 201.489 226.353 206.014C220.772 211.247 206.366 211.247 177.553 211.247H71.5127C38.7322 211.247 22.3419 211.247 6.57498 208.227C-7.41681 205.547 -21.0139 201.11 -33.8934 195.021C-48.4068 188.16 -61.6421 178.492 -88.1124 159.157L-88.1128 159.156L-229.41 55.9457C-252.676 38.9508 -264.309 30.4533 -265.729 22.9357C-266.957 16.4352 -264.778 9.75786 -259.952 5.23291C-254.371 0 -239.965 0 -211.153 0Z" fill="url(#paint0_linear)"/>
<defs>
<linearGradient id="paint0_linear" x1="160.808" y1="211.44" x2="-181.803" y2="-23.4933" gradientUnits="userSpaceOnUse">
<stop stop-color="#FAFAFD"/>
<stop offset="1" stop-color="#DCDEE5" stop-opacity="0"/>
</linearGradient>
</defs>
</svg>
