<svg width="88" height="64" viewBox="0 0 88 64" fill="none" xmlns="http://www.w3.org/2000/svg">
<path d="M71 32C71 46.9117 58.9117 59 44 59C29.0883 59 17 46.9117 17 32C17 17.0883 29.0883 5 44 5C58.9117 5 71 17.0883 71 32Z" fill="#F2F3FA"/>
<path d="M24.201 53.2132C17.3012 46.3134 14.465 36.8889 15.6922 27.9135C16.5488 21.6487 19.385 15.6028 24.201 10.7868" stroke="#76B5FF" stroke-width="4" stroke-linecap="round"/>
<path d="M63.799 10.7868C75.5147 22.5025 75.5147 41.4975 63.799 53.2132" stroke="#76B5FF" stroke-width="4" stroke-linecap="round"/>
<path d="M58.2571 17.5187L44.2997 13.047C44.1043 12.9843 43.896 12.9843 43.7005 13.047L29.7429 17.5187C29.302 17.6599 29 18.0933 29 18.585V34.9811C29 37.1137 29.8085 39.2967 31.4028 41.4696C32.6205 43.1292 34.3052 44.7956 36.41 46.4227C39.9459 49.156 43.4277 50.8328 43.5742 50.9028C43.7096 50.9676 43.8549 51 44.0001 51C44.1454 51 44.2906 50.9676 44.4261 50.9028C44.5725 50.8328 48.0543 49.156 51.5901 46.4227C53.6949 44.7956 55.3795 43.1292 56.5973 41.4696C58.1917 39.2968 59 37.1137 59 34.9811V18.585C59 18.0933 58.6982 17.6599 58.2571 17.5187Z" fill="#5954E9"/>
<path d="M44 29L44 37" stroke="#FAFAFD" stroke-width="4" stroke-linecap="round"/>
<circle cx="44" cy="29" r="4" fill="#FAFAFD"/>
</svg>
