<svg width="155" height="70" viewBox="0 0 155 70" fill="none" xmlns="http://www.w3.org/2000/svg">
<path d="M121 8.71564L106.824 22.892M121 8.71564L135.075 22.7907M121 8.71564V65.2842" stroke="#5954E9" stroke-width="8"/>
<path d="M34 61.2844L48.1763 47.1081M34 61.2844L19.9249 47.2094M34 61.2844V4.71588" stroke="#76B5FF" stroke-width="8"/>
<circle cx="77" cy="34" r="20" fill="#5954E9"/>
<path d="M48 34.9999C48 25.2421 52.6586 16.5724 59.873 11.0936C64.9085 7.26948 71.1892 4.99988 78 4.99988" stroke="#76B5FF" stroke-width="8"/>
<path d="M106 33C106 49.5685 92.5685 63 76 63" stroke="#5954E9" stroke-width="8"/>
<path d="M67 27.0182C68.2174 25.2727 72.8696 24.8364 77 22C81.1304 24.8364 85.7826 25.2727 87 27.0182C85.8406 33.2 85.6048 46 77 46C68.3952 46 68.1594 33.2 67 27.0182Z" fill="white"/>
<line x1="77" y1="29" x2="77" y2="39" stroke="#5954E9" stroke-width="2"/>
</svg>
