<svg width="64" height="64" viewBox="0 0 64 64" fill="none" xmlns="http://www.w3.org/2000/svg">
<path d="M61.9999 32C61.9999 48.5685 48.5684 62 31.9999 62C15.4313 62 1.99988 48.5685 1.99988 32C1.99988 15.4315 15.4313 2 31.9999 2C48.5684 2 61.9999 15.4315 61.9999 32Z" fill="#F2F3FA"/>
<path fill-rule="evenodd" clip-rule="evenodd" d="M41.2561 38.7153C40.9299 39.1784 40.3183 39.41 39.7883 39.2556L37.9535 38.7925C37.3011 38.5995 36.6079 38.6767 36.0371 38.9854C35.4255 39.3328 35.0177 39.7959 34.8546 40.4134L34.3654 42.073C34.243 42.6133 33.713 42.9992 33.1014 42.9992L30.3695 42.9606C29.7987 42.9606 29.3094 42.5747 29.1463 42.0344L28.7386 40.4134C28.5755 39.7573 28.1677 39.2556 27.5969 38.9082C26.9853 38.5995 26.3329 38.5223 25.6805 38.6767L23.9273 39.1012C23.3564 39.2556 22.7448 39.024 22.4594 38.5223L21.1546 36.2838C20.8692 35.7435 20.9915 35.126 21.4401 34.7401L22.7856 33.5822C23.2341 33.1963 23.5195 32.5788 23.5603 31.9227C23.5603 31.2666 23.3156 30.6491 22.8264 30.1859L21.5624 28.9895C21.1546 28.565 21.0731 27.9861 21.3585 27.4843L22.7448 25.2459C23.071 24.7827 23.6826 24.5512 24.2127 24.7055L26.0067 25.2073C26.6591 25.4002 27.3523 25.3231 27.9231 25.0143C28.5347 24.6669 28.9424 24.2038 29.1055 23.5863L29.5948 21.9268C29.7171 21.3864 30.2472 21.0005 30.8588 21.0005L33.6314 21.0777C34.2023 21.0777 34.6915 21.4636 34.8546 22.0039L35.2624 23.6249C35.4255 24.281 35.8332 24.7827 36.404 25.1301C37.0157 25.4388 37.668 25.516 38.3204 25.3616L40.0737 24.9371C40.6445 24.7827 41.2561 25.0143 41.5416 25.516L42.8463 27.7931C43.1317 28.3334 43.0094 28.9509 42.5609 29.3369L41.2154 30.4947C40.7668 30.8806 40.4814 31.4981 40.4407 32.1542C40.3999 32.7718 40.6853 33.3507 41.1746 33.7752L42.4793 35.0102C42.8871 35.4348 42.9686 36.0137 42.6832 36.5154L41.2561 38.7153ZM32.0003 35.2997C33.8227 35.2997 35.3001 33.8223 35.3001 31.9998C35.3001 30.1774 33.8227 28.7 32.0003 28.7C30.1778 28.7 28.7005 30.1774 28.7005 31.9998C28.7005 33.8223 30.1778 35.2997 32.0003 35.2997Z" fill="#5954E9"/>
<path d="M52 32C52 20.9543 43.0457 12 32 12M32 52C20.9543 52 12 43.0457 12 32" stroke="#76B5FF" stroke-width="2" stroke-linecap="round" stroke-linejoin="round"/>
<path d="M15.5353 33.5357L11.9998 30.0001L8.46422 33.5357" stroke="#76B5FF" stroke-width="2" stroke-linecap="round" stroke-linejoin="round"/>
<path d="M48.5 29.5L52.0355 33.0355L55.5711 29.5" stroke="#76B5FF" stroke-width="2" stroke-linecap="round" stroke-linejoin="round"/>
</svg>
