<svg xmlns="http://www.w3.org/2000/svg" width="312" height="289" fill="none" viewBox="0 0 312 289">
    <path fill="#fff" d="M196.022 222.538c-7.139-2.855-13.509-3.294-13.509-33.497-12.301 2.746-24.602 4.942-37.122 6.59.659 18.67 1.098 37.012 1.098 37.012l55.573.109c0-.109 1.208-7.358-6.04-10.214z"/>
    <path fill="#030047" d="M202.831 233.521l-57.11-.11v-.768c0-.22-.439-18.451-1.098-37.012v-.769l.768-.11c12.74-1.757 25.151-3.954 37.012-6.59l.989-.219v.988c0 27.787 5.381 29.873 11.751 32.29.44.109.879.329 1.208.439 7.798 3.075 6.59 10.983 6.59 11.092l-.11.769zm-55.573-1.757l54.036.11c.11-1.757-.33-6.48-5.711-8.567-.44-.219-.879-.329-1.208-.439-6.81-2.526-12.631-4.832-12.74-32.729-11.423 2.526-23.284 4.613-35.475 6.26.659 16.035 1.098 31.741 1.098 35.365z"/>
    <path fill="#fff" d="M182.622 195.74c-.109-2.526-.109-5.271-.109-8.237.219-32.728 10.543-51.948-20.648-65.237-9.006-3.844-19.989-9.995-36.133-14.717-17.243-5.052-12.74-3.295-12.74-3.295L88.83 121.717c50.74 34.595 47.006 31.959 55.133 37.451-1.318 8.127 1.208 24.052 1.757 39.977 12.191-.878 24.602-1.867 36.902-3.405z"/>
    <path fill="#030047" d="M144.732 199.914v-.879c-.219-6.15-.659-12.081-1.098-17.902-.769-8.896-1.318-16.584-.659-21.746-5.052-3.404-5.491-3.734-20.428-13.838l-35.255-24.052 24.272-17.463v-.439c.33-.988.33-1.098 14.278 3.075 11.971 3.515 21.197 7.798 28.665 11.312 2.746 1.318 5.272 2.417 7.688 3.515 25.04 10.653 23.942 25.041 22.185 46.787-.439 5.711-.988 12.19-.988 19.219 0 2.966 0 5.711.109 8.237v.769l-.768.11c-11.862 1.428-24.053 2.526-37.122 3.295h-.879zm-54.694-78.307l33.278 22.734c15.266 10.434 15.266 10.434 20.867 14.168l.439.329-.109.549c-.769 4.943-.11 12.74.549 21.856.439 5.601.878 11.312 1.098 17.133 12.52-.768 24.052-1.867 35.474-3.185-.11-2.306-.11-4.832-.11-7.578 0-7.029.55-13.618.989-19.329 1.647-21.087 2.855-34.926-21.197-45.14-2.416-.988-4.942-2.196-7.688-3.514-7.358-3.405-16.584-7.688-28.335-11.203-7.578-2.196-10.763-3.075-12.081-3.404l-23.174 16.584z"/>
    <path fill="#5233D4" d="M135.616 167.185c1.209-2.196 20.648-35.474 26.139-45.029-8.346-5.272-19.988-9.994-36.133-14.717-17.243-5.052-12.74-3.295-12.74-3.295L88.72 121.607c27.786 31.191 41.844 42.174 46.896 45.578z"/>
    <path fill="#6676FF" d="M135.946 168.393l-.769-.549c-6.04-4.063-20.098-15.376-47.116-45.798l-.659-.659 24.162-17.353v-.439c.33-.988.33-1.098 14.278 3.075 16.364 4.833 27.896 9.555 36.353 14.827l.659.439-.44.659c-1.867 3.295-5.381 9.226-9.225 15.815-7.249 12.301-16.145 27.677-16.914 29.105l-.329.878zm-46.018-46.676c26.139 29.324 40.087 40.526 45.469 44.26 1.977-3.514 9.665-16.694 16.474-28.335 3.624-6.151 6.919-11.752 8.896-15.157-8.237-5.052-19.549-9.555-35.255-14.277-7.578-2.197-10.763-3.075-12.081-3.405l-23.503 16.914z"/>
    <path fill="#030047" d="M183.611 206.613c-12.52 1.538-25.15 2.636-37.78 3.405.439 12.63.659 22.515.659 22.515l55.572.11s1.208-7.249-6.15-10.214c-5.272-2.087-10.214-2.856-12.301-15.816z"/>
    <path fill="#fff" d="M189.322 212.105l-9.335 7.139c-.549.439 0 1.318.549.988l9.335-7.139c.55-.439 0-1.427-.549-.988zM192.068 215.619c-2.197 1.867-4.064 4.174-5.382 6.81-.329.659.659 1.208.989.549 1.318-2.526 3.075-4.723 5.272-6.59.549-.439-.33-1.208-.879-.769zM71.477 108.757c-4.393 16.694.769 61.833-10.653 84.787-6.59 13.179-35.475 64.469-35.475 64.469l47.556 28.665s4.722-5.601 0-11.862c-4.723-6.26-9.995-9.884 6.48-37.012 23.173-38.11 31.85-57.769 31.85-98.076 0-17.902-1.538-34.046-1.538-34.046l-38.22 3.075z"/>
    <path fill="#030047" d="M73.124 287.666l-48.873-29.434.44-.659c.329-.549 28.994-51.289 35.474-64.359 7.029-14.058 7.688-37.451 8.237-56.122.33-11.861.659-22.075 2.306-28.445l.11-.549h.55l38.988-3.185.11.769c0 .11 1.537 16.364 1.537 34.156 0 39.428-8.017 59.197-31.96 98.516-15.266 25.04-11.531 29.653-7.358 34.925.33.329.55.659.879 1.098 5.052 6.7 0 12.85 0 12.85l-.44.439zm-46.676-30.093l46.237 27.897c.989-1.538 3.075-5.711-.44-10.214-.329-.33-.548-.659-.878-1.099-4.613-5.82-8.567-10.872 7.249-36.792 23.832-39.098 31.74-58.648 31.74-97.637 0-15.485-1.208-29.763-1.538-33.168l-36.792 3.076c-1.537 6.26-1.757 16.144-2.087 27.566-.549 19.879-1.208 42.394-8.347 56.781-6.04 12.081-31.63 57.44-35.144 63.59z"/>
    <path fill="#fff" d="M75.211 244.943c1.208-2.196 2.526-4.612 4.174-7.139 23.173-38.11 31.85-57.769 31.85-98.076 0-17.902-1.538-34.046-1.538-34.046l-38.22 3.185c-4.393 16.694.769 61.833-10.653 84.787-3.185 6.26-11.313 21.306-19.11 35.145 11.092 5.601 22.185 11.092 33.497 16.144z"/>
    <path fill="#030047" d="M75.65 246.042l-.658-.33c-10.873-4.942-21.856-10.214-33.498-16.254l-.769-.44.44-.769c9.884-17.792 16.474-29.982 19.11-35.144 7.029-14.058 7.688-37.452 8.237-56.122.33-11.862.659-22.076 2.306-28.446l.11-.549h.55l38.988-3.185.11.769c0 .11 1.537 16.364 1.537 34.156 0 39.428-8.017 59.197-31.96 98.516-1.537 2.526-2.965 4.942-4.173 7.139l-.33.659zm-32.728-17.683c11.093 5.711 21.636 10.873 32.07 15.486 1.098-2.087 2.416-4.283 3.844-6.48 23.832-39.098 31.74-58.648 31.74-97.637 0-15.485-1.208-29.763-1.538-33.168l-36.792 3.076c-1.538 6.26-1.757 16.144-2.087 27.566-.549 19.879-1.208 42.394-8.347 56.781-2.855 5.052-9.115 16.694-18.89 34.376z"/>
    <path fill="#5233D4" d="M114.09 182.341c6.919-25.48-4.393-76.769-4.393-76.769l-38.22 3.185c-3.295 12.74-1.208 41.954-4.942 65.347.659.11 41.954 7.798 47.555 8.237z"/>
    <path fill="#6676FF" d="M114.749 183.22h-.659c-4.503-.329-31.19-5.162-46.786-8.127l-1.758-.33.11-.768c1.867-11.752 2.307-25.151 2.636-37.012.33-11.862.66-22.076 2.306-28.446l.11-.549h.55l38.878-3.185.11.659c.44 2.087 11.313 51.839 4.393 77.099l.11.659zm-47.335-9.775h.11c24.93 4.613 41.404 7.469 45.907 8.018 5.931-23.503-3.185-68.752-4.503-75.013l-36.902 3.076c-1.537 6.26-1.757 16.144-2.087 27.566-.329 11.532-.658 24.712-2.525 36.353z"/>
    <path fill="#030047" d="M70.489 254.828c-11.532-5.162-22.845-10.654-34.157-16.474-6.15 11.092-11.093 19.659-11.093 19.659l47.556 28.665s4.722-5.601 0-11.862c-3.405-4.612-7.139-7.907-2.306-19.988z"/>
    <path fill="#fff" d="M72.575 262.406l-11.642 1.318c-.658.11-.658 1.208 0 1.098l11.642-1.318c.66-.11.66-1.208 0-1.098zM73.124 266.909c-2.855.439-5.6 1.537-8.127 3.075-.659.33 0 1.318.55.988 2.416-1.537 5.052-2.416 7.907-2.965.659-.22.44-1.208-.33-1.098zM114.749 149.283c-.439 0-.878-.329-.878-.878 0-6.26.549-10.873.549-10.873l.11-.549.549-.11s4.173-.879 8.457-4.064c.329-.219.878-.22 1.208.11.219.329.219.879-.11 1.208-3.734 2.746-7.139 3.954-8.567 4.283-.109 1.428-.439 5.272-.439 10.105-.11.439-.439.768-.879.768z"/>
    <path fill="#030047" d="M180.426 150.711c-2.087-.439-3.734-2.087-4.063-4.173-.11-.659-1.209-.44-1.099.329.44 2.416 2.307 4.503 4.833 4.942.659 0 .988-.988.329-1.098zM96.298 190.579c.33-.659-.549-1.209-.988-.55-1.318 2.307-1.318 4.943 0 7.249.33.659 1.318.11.988-.549-1.208-1.977-1.208-4.283 0-6.15z"/>
    <path fill="#fff" fill-rule="evenodd" d="M257.855 142.803c-.44 0-.879-.329-.879-.878v-15.156h20.538c.439 0 .878.329.878.878 0 .549-.329.879-.878.879h-18.891v13.509c.11.439-.329.768-.768.768zm-.006 38.989h-9.989c-.439 0-.878-.329-.878-.878 0-.549.329-.879.878-.879h9.116v-30.752c0-.439.33-.878.879-.878.549 0 .878.329.878.878v31.643c-.006.538-.437.862-.871.866H257.849zm-53.261 53.267h-52.497v52.498c0 .439-.33.768-.769.768-.44 0-.879-.329-.879-.878v-54.145h53.267v-53.267h37.231c.44 0 .879.33.879.879 0 .549-.33.878-.879.878h-35.584v51.951c.069.123.11.27.11.437 0 .549-.33.879-.879.879zm97.088-106.533h9.445c.439 0 .879-.33.879-.879 0-.549-.44-.878-.879-.878h-9.445c-.549 0-.879.329-.879.878 0 .549.44.879.879.879z" clip-rule="evenodd"/>
    <path fill="#fff" d="M234.352 84.705l16.474 25.59s10.983-11.203 3.295-21.637c-7.688-10.433-19.769-3.953-19.769-3.953z"/>
    <path fill="#030047" d="M250.716 111.722l-17.463-27.237.769-.44c.11-.11 12.85-6.809 20.867 4.174 8.018 10.983-3.294 22.625-3.404 22.734l-.769.769zM235.56 85.144l15.376 23.942c2.196-2.635 8.676-11.422 2.526-19.879-6.151-8.456-15.156-5.381-17.902-4.063z"/>
    <path fill="#5233D4" d="M237.647 108.757c2.547 0 4.612-2.065 4.612-4.613 0-2.547-2.065-4.613-4.612-4.613-2.548 0-4.613 2.066-4.613 4.613 0 2.548 2.065 4.613 4.613 4.613z"/>
    <path fill="#5233D4" d="M237.647 109.526c-2.966 0-5.382-2.416-5.382-5.382 0-2.965 2.416-5.381 5.382-5.381 2.965 0 5.381 2.416 5.381 5.381 0 2.966-2.416 5.382-5.381 5.382zm0-9.116c-2.087 0-3.734 1.647-3.734 3.734 0 2.087 1.647 3.734 3.734 3.734 2.086 0 3.734-1.647 3.734-3.734 0-2.087-1.648-3.734-3.734-3.734z"/>
    <path fill="#030047" d="M197.23 173.775c-.33 0-.659-.22-.769-.439l-6.809-14.937c-.22-.439 0-.879.439-1.098.439-.22.879 0 1.098.439l6.81 14.937c.219.439 0 .878-.44 1.098h-.329z"/>
    <path fill="#030047" d="M186.357 169.711c-.33 0-.659-.219-.769-.439-.22-.439 0-.879.439-1.098l14.937-6.81c.439-.219.879 0 1.098.44.22.439 0 .878-.439 1.098l-14.937 6.809h-.329z"/>
    <path fill="#5233D4" d="M127.16 231.654l-4.723 19.11 17.683-6.48-12.96-12.63z"/>
    <path fill="#5233D4" d="M121.339 252.082l5.491-21.965 14.827 14.607-20.318 7.358zm6.37-18.78l-4.063 16.144 14.936-5.491-10.873-10.653z"/>
    <path fill="#030047" d="M31.94 144.89c-.22 0-.44-.11-.55-.219l-6.59-5.821c-.329-.33-.329-.769-.11-1.208.33-.33.77-.33 1.209-.11l6.59 5.821c.329.329.329.768.11 1.208-.22.219-.44.329-.66.329zM.858 187.394c-.22 0-.44-.11-.66-.33-.329-.329-.219-.879.11-1.208l10.215-8.457c.33-.329.878-.219 1.208.11.33.33.22.879-.11 1.208l-10.214 8.457c-.22.11-.44.22-.55.22zM125.622 223.637h-.329l-9.116-3.295c-.439-.11-.659-.659-.549-1.098.11-.44.659-.659 1.098-.55l9.116 3.295c.439.11.659.659.549 1.099-.11.329-.439.549-.769.549zM123.865 228.359h-.22l-8.456-2.196c-.44-.11-.659-.549-.549-.989.109-.439.549-.659.988-.549l8.457 2.197c.439.11.659.549.549.988 0 .33-.439.549-.769.549z"/>
    <path fill="#5233D4" d="M163.732 259.99l34.157-18.781v42.504l-34.157-23.723z"/>
    <path fill="#fff" d="M16.735 273.718l-7.228 4.174 4.174 7.228 7.228-4.173-4.174-7.229z"/>
    <path fill="#030047" d="M13.378 286.348l-5.052-8.676 8.677-5.052 5.052 8.676-8.677 5.052zm-2.745-8.127l3.404 5.821 5.821-3.405-3.405-5.821-5.82 3.405z"/>
    <path fill="#fff" d="M130.454 73.282c13.18-6.15 18.122-6.809 26.249-5.271 6.26 1.208 7.249 5.272 9.006 9.006 3.185 6.59-1.208 6.15-1.208 6.15s1.538 2.856-2.965 2.416c0 0-1.099 1.538-5.052 0-3.954-1.537-19.11.55-20.977 5.711-.989 2.856-9.226.44-11.752-4.503-2.087-4.283.769-10.763 6.699-13.508z"/>
    <path fill="#030047" d="M133.2 93.381c-3.404 0-8.237-2.526-10.104-6.15-.988-1.977-1.098-4.393-.219-6.81 1.098-3.295 3.843-6.26 7.248-7.797 12.85-5.931 18.122-7.03 26.798-5.382 5.821 1.098 7.468 4.613 8.896 8.017.22.44.439.989.659 1.428 1.428 2.856 1.648 4.942.659 6.15-.439.55-.988.88-1.537.989 0 .44 0 .989-.33 1.428-.549.878-1.647 1.208-3.405 1.098-.659.55-2.306 1.208-5.601-.11-2.306-.988-10.653-.44-15.925 1.977-2.087.989-3.405 2.087-3.844 3.295-.219.55-.878 1.647-2.746 1.757-.219.11-.329.11-.549.11zm-2.306-19.33c-2.965 1.428-5.382 3.954-6.37 6.81-.659 1.977-.659 3.953.11 5.491 1.757 3.515 6.48 5.491 8.896 5.272.439 0 1.208-.11 1.318-.66.549-1.647 2.196-3.074 4.722-4.173 5.602-2.526 14.278-3.294 17.243-2.086 3.185 1.318 4.064.33 4.064.33l.329-.44.44.11c1.867.22 2.196-.22 2.306-.33.11-.22 0-.659-.11-.879l-.769-1.427 1.538.22s.769.11 1.208-.44c.22-.33.659-1.428-.878-4.503-.22-.549-.44-.988-.659-1.537-1.428-3.295-2.636-6.15-7.688-7.14-7.688-1.317-12.411-.768-25.7 5.382z"/>
    <path fill="#030047" d="M147.368 84.705c-3.185.768-6.59-.44-8.457-3.185-.439-.55-1.318 0-.988.549 2.196 3.075 5.93 4.503 9.664 3.624.769-.11.44-1.208-.219-.988zM159.339 86.462c.33-.11.769-.22 1.099-.22-.989-2.416-1.977-4.722-3.075-7.139-1.099-2.196-1.977-4.832-4.284-5.82-.659-.33-1.208.659-.549.988 2.307.989 3.405 4.283 4.393 6.37.769 1.867 1.648 3.844 2.416 5.82zM165.819 86.132c-1.537-4.393-3.514-8.456-6.04-12.3-.33-.55-1.318 0-.989.549 2.416 3.844 4.393 7.798 5.931 12.08.22.55 1.318.33 1.098-.329zM154.397 82.398c-1.538-1.647-3.844-1.318-5.491-2.636-.989-.768-1.538-1.867-2.417-2.636-.878-.878-1.757-1.537-2.855-2.086-.659-.33-1.208.549-.549.988 1.318.769 2.416 1.648 3.404 2.746.659.769 1.099 1.757 1.977 2.306.769.44 1.758.55 2.636.769.769.22 1.757.55 2.307 1.098 1.537 1.428.219 3.405-1.867 3.515-.659 0-.659 1.098 0 1.098 1.317-.11 2.855-.22 3.514-1.538.769-1.208.33-2.745-.659-3.624zM97.506 13.097c-.549.44-.988 1.098-1.318 1.537-3.734-.329-7.688 1.538-9.774 5.053-.66 1.098-1.099 2.196-1.318 3.294-2.526.44-5.272 1.977-6.92 3.515-2.965 2.965-3.075 8.127-.988 11.642-.988 2.196-1.318 4.832-.549 7.029.33.988.769 1.757 1.318 2.526.44 1.867 1.538 3.514 3.734 4.722 5.162 2.966 12.74.879 17.682-1.647 2.856-1.428 5.492-3.515 7.469-6.04 1.098.11 2.196-.22 3.295-.77 5.711-1.647 11.422-7.578 7.358-12.96-.11-1.317-.439-2.415-1.318-3.294-.879-1.538-1.867-2.306-2.965-2.526 1.427.11 2.965-.33 4.283-.989 1.428-2.086 2.855-4.173 3.954-6.37.878-1.647 2.086-2.416 3.514-2.745-3.404-6.26-15.925-12.52-27.457-1.977z"/>
    <path fill="#fff" d="M126.281 9.802c-1.977-3.185-5.052-5.601-8.676-6.26-7.798-1.318-15.266 4.613-16.694 13.29v.109c-.11.879-.22 1.757-.22 2.636-3.514 1.318-4.173 5.93-2.416 8.786 1.648 2.526 4.393 3.954 7.688 3.075 1.867 1.648 3.954 2.856 6.37 3.405 10.873 2.745 16.914-4.174 16.694-13.29-.22-3.953-.549-8.236-2.746-11.75z"/>
    <path fill="#030047" d="M116.726 36.49c-1.537 0-3.075-.22-4.832-.659-2.306-.549-4.503-1.757-6.37-3.295-3.295.66-6.26-.659-8.127-3.624-1.099-1.867-1.428-4.283-.77-6.37.55-1.538 1.538-2.746 2.966-3.405 0-.768.11-1.537.22-2.306v-.11c.769-4.613 3.295-8.786 7.029-11.422 3.185-2.306 7.029-3.185 10.653-2.526 3.734.66 7.029 2.965 9.336 6.59 2.416 3.734 2.745 8.566 2.855 12.3.11 5.162-1.757 9.555-5.052 12.191-2.197 1.758-4.832 2.636-7.908 2.636zm-10.653-5.82l.33.329c1.757 1.537 3.844 2.636 6.04 3.295 4.503 1.208 8.457.659 11.203-1.648 2.855-2.306 4.502-6.26 4.502-10.873 0-3.734-.439-8.017-2.526-11.422-2.086-3.185-4.942-5.271-8.127-5.82-3.295-.55-6.589.219-9.445 2.306-3.295 2.306-5.601 6.15-6.37 10.324v.11c-.11.768-.22 1.537-.22 2.525v.55l-.549.22c-1.537.548-2.196 1.757-2.526 2.635-.549 1.538-.33 3.515.55 4.942 1.537 2.417 3.953 3.405 6.809 2.746l.329-.22z"/>
    <path fill="#030047" d="M118.618 20.394c.324-.513.171-1.191-.341-1.516-.513-.324-1.191-.17-1.516.342-.324.512-.171 1.19.342 1.515.512.324 1.191.171 1.515-.341zM124.854 25.727c.109-2.416-.22-4.942-.769-7.248-.22-.66-1.208-.44-1.098.22.549 2.305.878 4.612.768 7.028-.11.66.989.769 1.099 0zM106.842 25.507c-1.318-2.196-4.064-3.294-6.48-2.526-.659.22-.44 1.318.22 1.099 1.977-.66 4.173.11 5.271 1.867.44.659 1.428.11.989-.44zM106.402 19.796c1.867 2.197 2.856-2.086 8.347-6.15 2.417-1.757 12.521 1.098 15.816-5.82 2.965-7.36-9.665-7.799-13.07-4.284-7.798-1.318-18.122 5.052-17.133 17.023 0 .11 4.832-1.208 6.04-.769z"/>
    <path fill="#fff" d="M130.784 114.358c-21.856 4.064-65.896 1.098-65.896 1.098S69.06 90.636 75.1 67.132c5.492-21.306 16.804-29.434 28.226-30.093 4.503-.33 9.006.66 13.289 2.307 2.746 1.098 4.943 2.416 6.7 4.063 10.653 9.446 7.578 27.238 4.173 36.573-3.954 10.983 3.295 34.376 3.295 34.376z"/>
    <path fill="#030047" d="M97.067 117.323c-16.913 0-31.96-.988-32.29-.988l-.878-.11.11-.878c0-.22 4.174-25.151 10.324-48.434 6.7-25.7 21.087-30.313 28.994-30.752 4.393-.22 9.006.549 13.619 2.306 2.636 1.098 5.052 2.526 6.919 4.174 12.96 11.532 5.931 33.168 4.393 37.45-3.844 10.654 3.185 33.608 3.185 33.828l.22.878-.879.22c-8.896 1.757-21.746 2.306-33.717 2.306zm-31.19-2.635c6.37.329 43.82 2.416 63.809-.989-1.318-4.503-6.59-23.942-2.965-33.937 1.427-4.063 8.127-24.93-3.954-35.694-1.757-1.647-3.954-2.965-6.48-3.953-4.393-1.758-8.676-2.526-12.85-2.197-12.96.769-22.734 11.202-27.457 29.544-5.491 20.647-9.335 42.613-10.104 47.226z"/>
    <path fill="#fff" d="M123.316 43.41c-4.723 3.734-12.521 5.49-19.989-6.37 4.503-.33 9.006.658 13.289 2.306 2.746 1.098 4.943 2.416 6.7 4.063z"/>
    <path fill="#030047" d="M116.067 47.034c-.549 0-1.208 0-1.757-.11-4.173-.66-8.017-3.844-11.532-9.335l-.769-1.209 1.428-.11c4.393-.22 9.006.55 13.619 2.307 2.636 1.098 5.052 2.526 6.919 4.173l.769.66-.769.658c-1.867 1.428-4.613 2.966-7.908 2.966zm-11.202-9.226c2.965 4.393 6.26 6.81 9.665 7.468 3.075.55 5.711-.659 7.468-1.867-1.647-1.318-3.515-2.416-5.711-3.294-3.844-1.538-7.688-2.307-11.422-2.307z"/>
    <path fill="#fff" fill-rule="evenodd" d="M156.264 50.987h21.197V26.935h10.214L166.917.027 146.16 26.935h10.104v24.052z" clip-rule="evenodd"/>
    <path fill="#030047" fill-rule="evenodd" d="M220.64 8.484c.11.11.33.22.549.22.068 0 .178-.042.33-.1.094-.036.203-.078.329-.12.33-.33.33-.878 0-1.208l-2.91-2.91 2.91-2.91c.33-.33.33-.88 0-1.209-.329-.33-.878-.33-1.208 0l-2.91 2.91-2.911-2.91c-.329-.33-.878-.33-1.208 0-.329.33-.329.879 0 1.208l2.911 2.91-2.911 2.911c-.329.33-.329.879 0 1.208.11.11.33.22.549.22.068 0 .178-.042.33-.1.094-.036.203-.078.329-.12l2.911-2.91 2.91 2.91z" clip-rule="evenodd"/>
    <path fill="#fff" d="M190.86 76.797c6.59 4.283 13.729 9.665-1.318 23.833-11.861 11.092 1.318-23.833 1.318-23.833z"/>
    <path fill="#030047" d="M185.918 103.595c-.33 0-.769-.11-1.099-.33-3.624-2.416 2.966-21.196 5.162-26.907l.33-.989.878.55c3.185 2.086 7.578 4.942 7.908 9.664.329 4.284-2.636 9.336-9.116 15.486-1.098 1.318-2.636 2.526-4.063 2.526zm5.271-25.59c-3.954 10.873-7.029 22.844-5.381 23.943 0 0 .659.439 3.075-1.977 6.15-5.821 9.006-10.434 8.676-14.168-.329-3.295-2.965-5.492-6.37-7.798z"/>
    <path fill="#fff" d="M193.276 77.895c.989-5.93-.659-10.763-4.942-5.93-4.283 4.942-2.526 16.254-7.688 13.948 0 0-11.202-.11-29.324 5.71-10.763 3.405-28.775-4.942-39.209-22.184-5.491 7.029-11.751 13.508-18.23 19.659 6.479 9.006 12.739 20.647 30.092 27.347 21.965 8.566 46.787-7.139 60.295-12.411 13.289-5.162 8.018-20.208 9.006-26.139z"/>
    <path fill="#030047" d="M137.813 119.85c-4.723 0-9.555-.769-14.278-2.527-15.266-5.93-21.965-15.485-27.896-23.942-.878-1.208-1.757-2.526-2.526-3.624l-.44-.55.55-.549C100.801 81.41 106.622 75.15 111.454 69l.769-.988.659.988c10.324 17.024 28.116 25.041 38.33 21.856 18.012-5.711 29.104-5.711 29.544-5.711h.219l.11.11c.879.33 1.208.22 1.318.11.989-.55 1.538-2.966 2.087-5.272.659-2.966 1.428-6.37 3.404-8.677 1.758-1.977 3.295-2.745 4.613-2.086 2.197.988 2.307 5.271 1.757 8.676-.219 1.318-.109 3.185 0 5.382.44 6.919 1.099 17.243-9.664 21.526-2.417.988-5.382 2.306-8.457 3.734-10.873 4.942-24.492 11.203-38.33 11.203zM94.87 89.317c.77.989 1.428 2.087 2.197 3.076 5.711 8.237 12.301 17.572 27.127 23.393 17.573 6.809 37.012-2.087 51.07-8.677 3.075-1.427 6.041-2.745 8.567-3.734 9.665-3.734 9.116-13.07 8.676-19.879-.11-2.306-.219-4.173 0-5.71.659-3.735 0-6.48-.878-6.92-.55-.22-1.538.33-2.636 1.648-1.648 1.977-2.416 5.052-2.966 7.907-.659 2.966-1.208 5.601-2.965 6.37-.769.33-1.647.33-2.636 0-1.428 0-12.301.33-28.885 5.602-10.543 3.294-28.445-3.954-39.537-21.527-4.613 5.821-9.995 11.642-17.134 18.451z"/>
    <path fill="#030047" d="M188.993 79.323c-.989-1.318-2.856-1.318-3.844 0-.44.55.549 1.098.988.55 2.416-1.1 2.746 1.537 2.197 3.074-.11.33-.11.66-.22.879-.22.879-.439 1.867-.659 2.746-.769 2.636-1.647 4.503-4.173 5.93-3.954 2.087-8.237 3.625-12.521 4.723-.659.22-.439 1.208.33 1.098 3.954-.988 7.798-2.416 11.422-4.173 3.295-1.648 4.832-3.185 5.821-6.81.659-1.867 2.306-5.93.659-8.017zM111.235 67.242c-.33 0-.55-.11-.769-.44-.11-.219-2.856-5.6-4.283-9.994-.11-.439.109-.878.549-.988.439-.11.878.11.988.55 1.428 4.282 4.174 9.774 4.283 9.774.22.439 0 .878-.329 1.098h-.439zM91.356 88.878c-.33 0-.55-.11-.769-.44l-6.37-11.312c-.22-.439-.11-.878.33-1.098.439-.22.878-.11 1.098.33l6.37 11.312c.22.44.11.879-.33 1.098 0 .11-.11.11-.33.11zM194.264 82.618c-.11.549-.11.988-.219 1.538 1.647 2.416 1.537 5.49-.659 7.797-.11.11-.11.11-.11.22v.33c.11.329.549.658.878.329 2.856-3.075 2.856-7.249.11-10.214z"/>
    <path fill="#030047" d="M183.501 84.705h-42.503c-2.087 0-2.087 3.294 0 3.294h42.503c2.087 0 2.087-3.294 0-3.294z"/>
    <path fill="#030047" d="M184.38 87.011l14.387-39.977c.769-1.977-2.416-3.075-3.075-1.099l-14.387 39.978c-.659 1.977 2.416 3.075 3.075 1.098z"/>
    <mask id="uzvswtyjba" fill="#fff">
        <path d="M275.581 270.162c-4.262-1.132-8.149-3.372-11.266-6.491-3.116-3.12-5.353-7.008-6.482-11.271-1.129-4.263-1.11-8.748.054-13.001 1.165-4.254 3.433-8.123 6.576-11.217L282 246l-6.419 24.162z"/>
    </mask>
    <path fill="#fff" stroke="#000" stroke-width="4" d="M275.581 270.162c-4.262-1.132-8.149-3.372-11.266-6.491-3.116-3.12-5.353-7.008-6.482-11.271-1.129-4.263-1.11-8.748.054-13.001 1.165-4.254 3.433-8.123 6.576-11.217L282 246l-6.419 24.162z" mask="url(#uzvswtyjba)"/>
    <mask id="fmb3rzmgjb" fill="#fff">
        <path d="M265.931 226.848c3.22-2.701 7.069-4.548 11.192-5.368 4.123-.82 8.386-.587 12.395.677s7.634 3.519 10.541 6.555c2.907 3.037 5.001 6.757 6.089 10.818 1.088 4.06 1.135 8.329.136 12.412s-3.012 7.848-5.852 10.947c-2.84 3.1-6.415 5.433-10.395 6.784-3.981 1.351-8.238 1.677-12.377.947L282 246l-16.069-19.152z"/>
    </mask>
    <path fill="#fff" stroke="#000" stroke-width="4" d="M265.931 226.848c3.22-2.701 7.069-4.548 11.192-5.368 4.123-.82 8.386-.587 12.395.677s7.634 3.519 10.541 6.555c2.907 3.037 5.001 6.757 6.089 10.818 1.088 4.06 1.135 8.329.136 12.412s-3.012 7.848-5.852 10.947c-2.84 3.1-6.415 5.433-10.395 6.784-3.981 1.351-8.238 1.677-12.377.947L282 246l-16.069-19.152z" mask="url(#fmb3rzmgjb)"/>
</svg>
