<svg width="64" height="64" viewBox="0 0 64 64" fill="none" xmlns="http://www.w3.org/2000/svg">
<path d="M2 20.4005L2 49.6005C2 51.8407 2 52.9608 2.43597 53.8165C2.81947 54.5691 3.43139 55.181 4.18404 55.5645C5.03969 56.0005 6.15979 56.0005 8.4 56.0005L44.6 56.0005C46.8402 56.0005 47.9603 56.0005 48.816 55.5645C49.5686 55.181 50.1805 54.5691 50.564 53.8165C51 52.9608 51 51.8407 51 49.6005L51 20.4005C51 18.1603 51 17.0402 50.564 16.1845C50.1805 15.4319 49.5686 14.82 48.816 14.4365C47.9603 14.0005 46.8402 14.0005 44.6 14.0005L8.4 14.0005C6.15979 14.0005 5.03969 14.0005 4.18404 14.4365C3.43139 14.82 2.81947 15.4319 2.43597 16.1845C2 17.0402 2 18.1603 2 20.4005Z" fill="#5954E9"/>
<path d="M9.43358 27.6467L17.3532 35.5663C18.9372 37.1504 19.7293 37.9424 20.6426 38.2392C21.446 38.5002 22.3114 38.5002 23.1147 38.2392C24.028 37.9424 24.8201 37.1504 26.4041 35.5663L38.5664 23.4041C40.1505 21.82 40.9425 21.028 41.2392 20.1147C41.5003 19.3113 41.5003 18.4459 41.2392 17.6425C40.9425 16.7292 40.1505 15.9372 38.5664 14.3531L30.6468 6.43351C29.0627 4.84945 28.2707 4.05741 27.3574 3.76066C26.554 3.49963 25.6886 3.49963 24.8852 3.76066C23.9719 4.05741 23.1799 4.84945 21.5958 6.43351L9.43358 18.5958C7.84952 20.1798 7.05748 20.9719 6.76073 21.8852C6.4997 22.6885 6.4997 23.5539 6.76073 24.3573C7.05748 25.2706 7.84952 26.0627 9.43358 27.6467Z" fill="#F2F3FA"/>
<path d="M17.2516 31.2075L27.2925 41.2484C28.8766 42.8325 29.6686 43.6245 30.5819 43.9213C31.3853 44.1823 32.2507 44.1823 33.0541 43.9213C33.9674 43.6245 34.7594 42.8325 36.3435 41.2484L52.7484 24.8436C54.3324 23.2595 55.1245 22.4675 55.4212 21.5541C55.6822 20.7508 55.6822 19.8854 55.4212 19.082C55.1245 18.1687 54.3324 17.3767 52.7484 15.7926L42.7074 5.75168C41.1234 4.16762 40.3313 3.37558 39.418 3.07883C38.6146 2.81779 37.7493 2.81779 36.9459 3.07883C36.0326 3.37558 35.2405 4.16761 33.6565 5.75168L17.2516 22.1566C15.6675 23.7406 14.8755 24.5327 14.5787 25.446C14.3177 26.2494 14.3177 27.1147 14.5787 27.9181C14.8755 28.8314 15.6675 29.6235 17.2516 31.2075Z" fill="#76B5FF"/>
<path d="M38.182 8.29717L31.818 14.6611" stroke="white" stroke-width="2" stroke-linecap="round" stroke-linejoin="round"/>
<path d="M2 22.0005L2 55.6005C2 57.8407 2 58.9608 2.43597 59.8165C2.81947 60.5691 3.43139 61.181 4.18404 61.5645C5.03969 62.0005 6.15979 62.0005 8.4 62.0005L53.6 62.0005C55.8402 62.0005 56.9603 62.0005 57.816 61.5645C58.5686 61.181 59.1805 60.5691 59.564 59.8165C60 58.9608 60 57.8407 60 55.6005L60 28.4005C60 26.1603 60 25.0402 59.564 24.1845C59.1805 23.4319 58.5686 22.82 57.816 22.4365C56.9603 22.0005 55.8402 22.0005 53.6 22.0005L2 22.0005Z" fill="#5954E9"/>
<path d="M40 33H60.2286C61.2069 33 62 33.7931 62 34.7714V49.2286C62 50.2069 61.2069 51 60.2286 51H40C35.0294 51 31 46.9706 31 42C31 37.0294 35.0294 33 40 33Z" fill="#76B5FF"/>
<circle cx="40" cy="42" r="5" fill="#F2F3FA"/>
</svg>
